
        <svg xmlns="http://www.w3.org/2000/svg" xmlns:xlink="http://www.w3.org/1999/xlink" version="1.1" width="3187.5" height="792.3093330083886" viewBox="0 0 3187.5 792.3093330083886">
			
			<g transform="scale(9.375) translate(10, 10)">
				<defs id="SvgjsDefs2801"/><g id="SvgjsG2802" featureKey="5TMTKC-0" transform="matrix(3.225787596559729,0,0,3.225787596559729,-1.6127030645314413,-19.355906898058286)" fill="#fff"><g xmlns="http://www.w3.org/2000/svg" transform="translate(0,-1020.3622)"><path style="color:;font-style:normal;font-variant:normal;font-weight:normal;font-stretch:normal;font-size:medium;line-height:normal;font-family:sans-serif;text-indent:0;text-align:start;text-decoration:none;text-decoration-line:none;text-decoration-style:solid;text-decoration-color:;letter-spacing:normal;word-spacing:normal;text-transform:none;direction:ltr;block-progression:tb;writing-mode:lr-tb;baseline-shift:baseline;text-anchor:start;white-space:normal;clip-rule:nonzero;display:inline;overflow:visible;visibility:visible;opacity:1;isolation:auto;mix-blend-mode:normal;color-interpolation:sRGB;color-interpolation-filters:linearRGB;solid-color:;solid-opacity:1;fill:#ed932b;fill-opacity:1;fill-rule:nonzero;stroke:none;stroke-width:0.99999994;stroke-linecap:round;stroke-linejoin:round;stroke-miterlimit:4;stroke-dasharray:none;stroke-dashoffset:0;stroke-opacity:1;color-rendering:auto;image-rendering:auto;shape-rendering:auto;text-rendering:auto;enable-background:accumulate" d="m 13.630859,1037.0293 c -0.09578,0 -0.190694,0.02 -0.273437,0.068 l -0.734375,0.414 0.414062,-0.035 c -0.549962,-0.1968 -1.166566,-0.065 -1.583984,0.3437 l -0.002,0 c -0.589304,0.5781 -0.589304,1.545 0,2.1231 l 0.002,0 c 0.181794,0.1776 0.345732,0.3042 0.585937,0.373 0.06938,0.2503 0.195902,0.4359 0.384766,0.6211 0.589755,0.5784 1.514972,0.6042 2.136719,0 0.396668,-0.3855 0.487549,-0.9215 0.437504,-1.2208 l 0.371094,-0.6288 c 0.341133,-0.5729 -0.518242,-1.0846 -0.859375,-0.5117 l -0.46875,0.7851 c -0.06912,0.1173 -0.08746,0.2576 -0.05078,0.3887 0.04709,0.1702 -10e-4,0.3472 -0.130859,0.4746 -0.203891,0.2 -0.532437,0.2 -0.736328,0 -0.09571,-0.094 -0.146855,-0.2181 -0.146485,-0.3476 0.0013,-0.2687 -0.210033,-0.4904 -0.478515,-0.502 -0.133205,-0.01 -0.25537,-0.058 -0.345703,-0.1465 -0.203641,-0.1997 -0.203641,-0.4936 0,-0.6933 0.141196,-0.1384 0.354991,-0.1859 0.546875,-0.1172 0.136563,0.049 0.287653,0.036 0.414062,-0.035 l 0.736328,-0.414 c 0.447503,-0.2421 0.289664,-0.92 -0.21875,-0.9395 z"/><path style="color:;font-style:normal;font-variant:normal;font-weight:normal;font-stretch:normal;font-size:medium;line-height:normal;font-family:sans-serif;text-indent:0;text-align:start;text-decoration:none;text-decoration-line:none;text-decoration-style:solid;text-decoration-color:;letter-spacing:normal;word-spacing:normal;text-transform:none;direction:ltr;block-progression:tb;writing-mode:lr-tb;baseline-shift:baseline;text-anchor:start;white-space:normal;clip-rule:nonzero;display:inline;overflow:visible;visibility:visible;opacity:1;isolation:auto;mix-blend-mode:normal;color-interpolation:sRGB;color-interpolation-filters:linearRGB;solid-color:;solid-opacity:1;fill:#ed932b;fill-opacity:1;fill-rule:nonzero;stroke:none;stroke-width:0.99999982;stroke-linecap:round;stroke-linejoin:round;stroke-miterlimit:4;stroke-dasharray:none;stroke-dashoffset:0;stroke-opacity:1;color-rendering:auto;image-rendering:auto;shape-rendering:auto;text-rendering:auto;enable-background:accumulate" d="m 19.392578,1030.4355 c -0.204687,0 -0.390395,0.1195 -0.46875,0.3086 -0.154676,0.3752 -0.51625,0.6167 -0.921875,0.6172 -0.171599,-6e-4 -0.340989,-0.044 -0.490234,-0.1289 -0.231375,-0.1311 -0.524873,-0.058 -0.667969,0.166 -0.18371,0.2892 -0.501151,0.463 -0.84375,0.4629 l -0.0078,0 c -0.17368,10e-5 -0.334869,0.09 -0.425782,0.2383 -0.06732,0.1087 -0.163881,0.246 -0.24414,0.4356 -0.516246,1.2196 -0.746733,2.4872 -1.345704,3.4531 -0.08172,0.1317 -0.319911,0.4073 -0.52539,0.6191 -0.20548,0.2118 -0.378906,0.3731 -0.378906,0.3731 -0.216304,0.2007 -0.212685,0.5441 0.0078,0.7402 0,0 1.2466,1.123 1.667969,1.6191 0.170544,0.2012 0.468005,0.2353 0.679687,0.078 0,0 0.920296,-0.6646 1.302735,-0.8477 0.99477,-0.4762 2.294446,-0.5641 3.521484,-1.1621 0.423904,-0.2065 0.79965,-0.4727 1.146485,-0.7656 0.0094,-0.01 0.01852,-0.016 0.02734,-0.024 1.444633,-1.4094 1.413976,-3.7429 -0.05078,-5.1718 -0.523876,-0.5113 -1.181256,-0.852 -1.882812,-1.002 -0.03279,-0.01 -0.06616,-0.01 -0.09961,-0.01 z m 0.242187,1.088 c 0.444004,0.1786 0.719323,0.3266 1.041016,0.6406 1.084446,1.0579 1.097378,2.7059 0.05469,3.7304 -0.294834,0.2468 -0.594457,0.4566 -0.916016,0.6133 -0.989544,0.4822 -2.288588,0.5738 -3.517578,1.1621 -0.461806,0.2212 -0.827034,0.4741 -1.09375,0.6699 -0.439757,-0.4538 -0.800464,-0.7762 -1.064453,-1.0136 0.02247,-0.023 0.0079,5e-4 0.03125,-0.024 0.225101,-0.232 0.481781,-0.5046 0.658203,-0.789 0.735111,-1.1855 1.000602,-2.5981 1.455079,-3.6719 0.620928,-0.04 1.067154,-0.5042 1.130858,-0.5742 0.892225,0.2641 1.706476,-0.061 2.2207,-0.7441 z"/><path style="color:;font-style:normal;font-variant:normal;font-weight:normal;font-stretch:normal;font-size:medium;line-height:normal;font-family:sans-serif;text-indent:0;text-align:start;text-decoration:none;text-decoration-line:none;text-decoration-style:solid;text-decoration-color:;letter-spacing:normal;word-spacing:normal;text-transform:none;direction:ltr;block-progression:tb;writing-mode:lr-tb;baseline-shift:baseline;text-anchor:start;white-space:normal;clip-rule:nonzero;display:inline;overflow:visible;visibility:visible;opacity:1;isolation:auto;mix-blend-mode:normal;color-interpolation:sRGB;color-interpolation-filters:linearRGB;solid-color:;solid-opacity:1;fill:#ed932b;fill-opacity:1;fill-rule:evenodd;stroke:none;stroke-width:1.00000024px;stroke-linecap:round;stroke-linejoin:miter;stroke-miterlimit:4;stroke-dasharray:none;stroke-dashoffset:0;stroke-opacity:1;color-rendering:auto;image-rendering:auto;shape-rendering:auto;text-rendering:auto;enable-background:accumulate" d="M 4.9921875,1027.8613 A 0.50005012,0.50005012 0 0 0 4.5,1028.3691 l 0,4.4864 a 0.50005012,0.50005012 0 1 0 1,0 l 0,-4.4864 a 0.50005012,0.50005012 0 0 0 -0.5078125,-0.5078 z"/><path style="color:;font-style:normal;font-variant:normal;font-weight:normal;font-stretch:normal;font-size:medium;line-height:normal;font-family:sans-serif;text-indent:0;text-align:start;text-decoration:none;text-decoration-line:none;text-decoration-style:solid;text-decoration-color:;letter-spacing:normal;word-spacing:normal;text-transform:none;direction:ltr;block-progression:tb;writing-mode:lr-tb;baseline-shift:baseline;text-anchor:start;white-space:normal;clip-rule:nonzero;display:inline;overflow:visible;visibility:visible;opacity:1;isolation:auto;mix-blend-mode:normal;color-interpolation:sRGB;color-interpolation-filters:linearRGB;solid-color:;solid-opacity:1;fill:#ed932b;fill-opacity:1;fill-rule:nonzero;stroke:none;stroke-width:1.00000012;stroke-linecap:round;stroke-linejoin:miter;stroke-miterlimit:4;stroke-dasharray:none;stroke-dashoffset:0;stroke-opacity:1;color-rendering:auto;image-rendering:auto;shape-rendering:auto;text-rendering:auto;enable-background:accumulate" d="m 0.5,1032.8613 0,0.5 0,1.0723 c 0,0.5835 0.33316438,1.0895 0.7929688,1.418 0.4598043,0.3284 1.0571976,0.5097 1.7070312,0.5097 0.6498338,0 1.2452736,-0.1813 1.7050781,-0.5097 C 5.1648827,1035.5231 5.5,1035.0171 5.5,1034.4336 l 0,-1.5723 -5,0 z m 1,1 3,0 0,0.5723 c 0,0.2078 -0.1118045,0.4155 -0.375,0.6035 -0.2631955,0.188 -0.6668327,0.3242 -1.125,0.3242 -0.458167,0 -0.8618047,-0.1362 -1.125,-0.3242 -0.2631953,-0.188 -0.375,-0.3957 -0.375,-0.6035 l 0,-0.5723 z"/><path style="color:;font-style:normal;font-variant:normal;font-weight:normal;font-stretch:normal;font-size:medium;line-height:normal;font-family:sans-serif;text-indent:0;text-align:start;text-decoration:none;text-decoration-line:none;text-decoration-style:solid;text-decoration-color:;letter-spacing:normal;word-spacing:normal;text-transform:none;direction:ltr;block-progression:tb;writing-mode:lr-tb;baseline-shift:baseline;text-anchor:start;white-space:normal;clip-rule:nonzero;display:inline;overflow:visible;visibility:visible;opacity:1;isolation:auto;mix-blend-mode:normal;color-interpolation:sRGB;color-interpolation-filters:linearRGB;solid-color:;solid-opacity:1;fill:#ed932b;fill-opacity:1;fill-rule:nonzero;stroke:none;stroke-width:1.00000012;stroke-linecap:round;stroke-linejoin:miter;stroke-miterlimit:4;stroke-dasharray:none;stroke-dashoffset:0;stroke-opacity:1;color-rendering:auto;image-rendering:auto;shape-rendering:auto;text-rendering:auto;enable-background:accumulate" d="m 1.5,1038.8613 0,0.5 0,5.8184 c 0,0.375 0.2152509,0.6943 0.484375,0.8887 0.2691241,0.1943 0.6022234,0.2929 0.9609375,0.2929 l 0.109375,0 c 0.358712,0 0.6918141,-0.099 0.9609375,-0.2929 C 4.2847484,1045.874 4.5,1045.5547 4.5,1045.1797 l 0,-6.3184 -3,0 z m 1,1 1,0 0,5.3184 c 0,0 0.00431,0.026 -0.068359,0.078 -0.072666,0.053 -0.2122081,0.1035 -0.3769531,0.1035 l -0.109375,0 c -0.1647497,0 -0.3042874,-0.051 -0.3769531,-0.1035 C 2.4956936,1045.2053 2.5,1045.1828 2.5,1045.1797 l 0,-5.3184 z"/><path style="color:;font-style:normal;font-variant:normal;font-weight:normal;font-stretch:normal;font-size:medium;line-height:normal;font-family:sans-serif;text-indent:0;text-align:start;text-decoration:none;text-decoration-line:none;text-decoration-style:solid;text-decoration-color:;letter-spacing:normal;word-spacing:normal;text-transform:none;direction:ltr;block-progression:tb;writing-mode:lr-tb;baseline-shift:baseline;text-anchor:start;white-space:normal;clip-rule:nonzero;display:inline;overflow:visible;visibility:visible;opacity:1;isolation:auto;mix-blend-mode:normal;color-interpolation:sRGB;color-interpolation-filters:linearRGB;solid-color:;solid-opacity:1;fill:#ed932b;fill-opacity:1;fill-rule:evenodd;stroke:none;stroke-width:1.00000024px;stroke-linecap:butt;stroke-linejoin:miter;stroke-miterlimit:4;stroke-dasharray:none;stroke-dashoffset:0;stroke-opacity:1;color-rendering:auto;image-rendering:auto;shape-rendering:auto;text-rendering:auto;enable-background:accumulate" d="m 2.5,1035.3613 0,4.5 1,0 0,-4.5 -1,0 z"/><path style="color:;font-style:normal;font-variant:normal;font-weight:normal;font-stretch:normal;font-size:medium;line-height:normal;font-family:sans-serif;text-indent:0;text-align:start;text-decoration:none;text-decoration-line:none;text-decoration-style:solid;text-decoration-color:;letter-spacing:normal;word-spacing:normal;text-transform:none;direction:ltr;block-progression:tb;writing-mode:lr-tb;baseline-shift:baseline;text-anchor:start;white-space:normal;clip-rule:nonzero;display:inline;overflow:visible;visibility:visible;opacity:1;isolation:auto;mix-blend-mode:normal;color-interpolation:sRGB;color-interpolation-filters:linearRGB;solid-color:;solid-opacity:1;fill:#ed932b;fill-opacity:1;fill-rule:evenodd;stroke:none;stroke-width:1.00000024px;stroke-linecap:round;stroke-linejoin:miter;stroke-miterlimit:4;stroke-dasharray:none;stroke-dashoffset:0;stroke-opacity:1;color-rendering:auto;image-rendering:auto;shape-rendering:auto;text-rendering:auto;enable-background:accumulate" d="M 2.9921875,1027.8613 A 0.50005012,0.50005012 0 0 0 2.5,1028.3691 l 0,4.4864 a 0.50005012,0.50005012 0 1 0 1,0 l 0,-4.4864 a 0.50005012,0.50005012 0 0 0 -0.5078125,-0.5078 z"/><path style="color:;font-style:normal;font-variant:normal;font-weight:normal;font-stretch:normal;font-size:medium;line-height:normal;font-family:sans-serif;text-indent:0;text-align:start;text-decoration:none;text-decoration-line:none;text-decoration-style:solid;text-decoration-color:;letter-spacing:normal;word-spacing:normal;text-transform:none;direction:ltr;block-progression:tb;writing-mode:lr-tb;baseline-shift:baseline;text-anchor:start;white-space:normal;clip-rule:nonzero;display:inline;overflow:visible;visibility:visible;opacity:1;isolation:auto;mix-blend-mode:normal;color-interpolation:sRGB;color-interpolation-filters:linearRGB;solid-color:;solid-opacity:1;fill:#ed932b;fill-opacity:1;fill-rule:evenodd;stroke:none;stroke-width:1.00000024px;stroke-linecap:round;stroke-linejoin:miter;stroke-miterlimit:4;stroke-dasharray:none;stroke-dashoffset:0;stroke-opacity:1;color-rendering:auto;image-rendering:auto;shape-rendering:auto;text-rendering:auto;enable-background:accumulate" d="M 0.9921875,1027.8613 A 0.50005012,0.50005012 0 0 0 0.5,1028.3691 l 0,4.4864 a 0.50005012,0.50005012 0 1 0 1,0 l 0,-4.4864 a 0.50005012,0.50005012 0 0 0 -0.5078125,-0.5078 z"/><path style="color:;font-style:normal;font-variant:normal;font-weight:normal;font-stretch:normal;font-size:medium;line-height:normal;font-family:sans-serif;text-indent:0;text-align:start;text-decoration:none;text-decoration-line:none;text-decoration-style:solid;text-decoration-color:;letter-spacing:normal;word-spacing:normal;text-transform:none;direction:ltr;block-progression:tb;writing-mode:lr-tb;baseline-shift:baseline;text-anchor:start;white-space:normal;clip-rule:nonzero;display:inline;overflow:visible;visibility:visible;opacity:1;isolation:auto;mix-blend-mode:normal;color-interpolation:sRGB;color-interpolation-filters:linearRGB;solid-color:;solid-opacity:1;fill:#ed932b;fill-opacity:1;fill-rule:evenodd;stroke:none;stroke-width:0.99999994;stroke-linecap:round;stroke-linejoin:round;stroke-miterlimit:4;stroke-dasharray:none;stroke-dashoffset:0;stroke-opacity:1;color-rendering:auto;image-rendering:auto;shape-rendering:auto;text-rendering:auto;enable-background:accumulate" d="m 30.976562,1027.8633 c -0.09491,0 -0.187044,0.033 -0.265624,0.086 -2.551468,1.7353 -3.17451,4.253 -3.210938,6.2363 l 0,0.01 0,5.1035 c 2.8e-5,0.2761 0.223869,0.5 0.5,0.5 l 0.5,0 0.0078,6.0645 c 0.0011,0.2753 0.224648,0.498 0.5,0.498 l 1.992188,0 c 0.276131,0 0.499972,-0.2239 0.5,-0.5 l -0.002,-6.5156 0,0 c 0.0015,-0.022 0.0015,-0.044 0,-0.066 l -0.002,-3.1484 c 0.0096,-0.6762 -1.00956,-0.6762 -1,0 l 0.002,2.6699 -1.998047,0 0,-4.5937 c 0.02842,-1.5472 0.46792,-3.2923 1.994141,-4.7285 l 0.0059,3.1367 c -0.0096,0.6762 1.00956,0.6762 1,0 l -0.0078,-4.25 c -0.001,-0.2816 -0.234198,-0.5068 -0.515626,-0.498 z M 29.5,1039.7988 l 0.998047,0 0.002,5.5625 -0.994141,0 z"/><path style="color:;font-style:normal;font-variant:normal;font-weight:normal;font-stretch:normal;font-size:medium;line-height:normal;font-family:sans-serif;text-indent:0;text-align:start;text-decoration:none;text-decoration-line:none;text-decoration-style:solid;text-decoration-color:;letter-spacing:normal;word-spacing:normal;text-transform:none;direction:ltr;block-progression:tb;writing-mode:lr-tb;baseline-shift:baseline;text-anchor:start;white-space:normal;clip-rule:nonzero;display:inline;overflow:visible;visibility:visible;opacity:1;isolation:auto;mix-blend-mode:normal;color-interpolation:sRGB;color-interpolation-filters:linearRGB;solid-color:;solid-opacity:1;fill:#ed932b;fill-opacity:1;fill-rule:nonzero;stroke:none;stroke-width:0.99999994;stroke-linecap:round;stroke-linejoin:round;stroke-miterlimit:4;stroke-dasharray:none;stroke-dashoffset:0;stroke-opacity:1;color-rendering:auto;image-rendering:auto;shape-rendering:auto;text-rendering:auto;enable-background:accumulate" d="m 16.275391,1026.3652 c -2.263623,0.054 -4.507136,0.9112 -6.269532,2.5625 a 0.5002327,0.5002327 0 0 0 0.683594,0.7305 c 3.159479,-2.9604 8.026092,-3.0769 11.322266,-0.2695 3.296114,2.8074 3.958383,7.6318 1.539062,11.2226 -2.419324,3.5908 -7.139088,4.7901 -10.978515,2.7891 -3.8394393,-2.0011 -5.5591501,-6.5555 -4.0019535,-10.5957 a 0.50053344,0.50053344 0 1 0 -0.9335937,-0.3613 c -1.7372275,4.5072 0.1912081,9.6113 4.4746092,11.8437 4.283388,2.2324 9.570491,0.8888 12.269531,-3.1172 2.699038,-4.0059 1.956528,-9.4109 -1.720703,-12.5429 -1.838648,-1.566 -4.121143,-2.3154 -6.384765,-2.2618 z"/><path style="opacity:1;fill:#ed932b;fill-opacity:1;stroke:none;stroke-width:0.26500002;stroke-linecap:butt;stroke-linejoin:miter;stroke-miterlimit:4;stroke-dasharray:none;stroke-dashoffset:0;stroke-opacity:1" d="m 9.5001226,1030.8622 a 0.50000002,0.50000002 0 0 1 -0.5000001,0.5 0.50000002,0.50000002 0 0 1 -0.5000001,-0.5 0.50000002,0.50000002 0 0 1 0.5000001,-0.5 0.50000002,0.50000002 0 0 1 0.5000001,0.5 z"/><path style="opacity:1;fill:#ed932b;fill-opacity:1;stroke:none;stroke-width:0.26500002;stroke-linecap:butt;stroke-linejoin:miter;stroke-miterlimit:4;stroke-dasharray:none;stroke-dashoffset:0;stroke-opacity:1" d="m 31.500123,1034.3622 a 0.50000002,0.50000002 0 0 1 -0.5,0.5 0.50000002,0.50000002 0 0 1 -0.5,-0.5 0.50000002,0.50000002 0 0 1 0.5,-0.5 0.50000002,0.50000002 0 0 1 0.5,0.5 z"/></g></g><g id="SvgjsG2803" featureKey="7UBp9i-0" transform="matrix(1.921229615096674,0,0,1.921229615096674,118.53986459473514,7.663784450912614)" fill="#fff"><path d="M7.78 5.380000000000001 c1.6267 0 3.0066 0.47336 4.14 1.42 s1.76 2.1534 1.88 3.62 l-3 0 c-0.18666 -0.8 -0.54666 -1.4 -1.08 -1.8 s-1.18 -0.6 -1.94 -0.6 c-1.2267 0 -2.18 0.44334 -2.86 1.33 s-1.02 2.0766 -1.02 3.57 c0 1.4667 0.34666 2.63 1.04 3.49 s1.64 1.29 2.84 1.29 c2.0534 0 3.1866 -1.0267 3.4 -3.08 l-3.16 0 l0 -2.34 l6 0 l0 7.72 l-2 0 l-0.32 -1.62 c-1 1.3067 -2.3066 1.96 -3.92 1.96 c-2.1066 0 -3.8034 -0.69334 -5.09 -2.08 s-1.93 -3.1666 -1.93 -5.34 c0 -2.2134 0.64 -4.0234 1.92 -5.43 s2.98 -2.11 5.1 -2.11 z M21.28 9.38 c1.6533 0 2.96 0.50334 3.92 1.51 s1.44 2.3234 1.44 3.95 c0 1.64 -0.49 2.9566 -1.47 3.95 s-2.2766 1.49 -3.89 1.49 c-1.64 0 -2.94 -0.50334 -3.9 -1.51 s-1.44 -2.3166 -1.44 -3.93 c0 -1.6667 0.49 -2.9934 1.47 -3.98 s2.27 -1.48 3.87 -1.48 z M18.78 14.84 c0 1.0533 0.21334 1.8666 0.64 2.44 s1.0467 0.86 1.86 0.86 c0.84 0 1.47 -0.29334 1.89 -0.88 s0.63 -1.3933 0.63 -2.42 c0 -1.0667 -0.21666 -1.8867 -0.65 -2.46 s-1.0633 -0.86 -1.89 -0.86 c-0.8 0 -1.4133 0.28666 -1.84 0.86 s-0.64 1.3933 -0.64 2.46 z M33.5 9.38 c1.6533 0 2.96 0.50334 3.92 1.51 s1.44 2.3234 1.44 3.95 c0 1.64 -0.49 2.9566 -1.47 3.95 s-2.2766 1.49 -3.89 1.49 c-1.64 0 -2.94 -0.50334 -3.9 -1.51 s-1.44 -2.3166 -1.44 -3.93 c0 -1.6667 0.49 -2.9934 1.47 -3.98 s2.27 -1.48 3.87 -1.48 z M31 14.84 c0 1.0533 0.21334 1.8666 0.64 2.44 s1.0467 0.86 1.86 0.86 c0.84 0 1.47 -0.29334 1.89 -0.88 s0.63 -1.3933 0.63 -2.42 c0 -1.0667 -0.21666 -1.8867 -0.65 -2.46 s-1.0633 -0.86 -1.89 -0.86 c-0.8 0 -1.4133 0.28666 -1.84 0.86 s-0.64 1.3933 -0.64 2.46 z M50.78 5.720000000000001 l0 14.28 l-2.7 0 l0 -1.32 l-0.04 0 c-0.61334 1.0667 -1.66 1.6 -3.14 1.6 c-1.4267 0 -2.5566 -0.52 -3.39 -1.56 s-1.25 -2.3666 -1.25 -3.98 c0 -1.5733 0.42334 -2.86 1.27 -3.86 s1.95 -1.5 3.31 -1.5 c0.62666 0 1.2167 0.13 1.77 0.39 s0.98334 0.64334 1.29 1.15 l0.04 0 l0 -5.2 l2.84 0 z M43.099999999999994 14.82 c0 0.94666 0.22332 1.7367 0.66998 2.37 s1.0567 0.95 1.83 0.95 c0.81334 0 1.4233 -0.29666 1.83 -0.89 s0.61 -1.41 0.61 -2.45 s-0.21334 -1.8467 -0.64 -2.42 s-1.0333 -0.86 -1.82 -0.86 c-0.81334 0 -1.43 0.3 -1.85 0.9 s-0.63 1.4 -0.63 2.4 z M68.82 5.720000000000001 l0 2.64 l-6.9 0 l0 3.3 l5.98 0 l0 2.44 l-5.98 0 l0 5.9 l-3.14 0 l0 -14.28 l10.04 0 z M75.35999999999999 9.38 c1.6533 0 2.96 0.50334 3.92 1.51 s1.44 2.3234 1.44 3.95 c0 1.64 -0.49 2.9566 -1.47 3.95 s-2.2766 1.49 -3.89 1.49 c-1.64 0 -2.94 -0.50334 -3.9 -1.51 s-1.44 -2.3166 -1.44 -3.93 c0 -1.6667 0.49 -2.9934 1.47 -3.98 s2.27 -1.48 3.87 -1.48 z M72.85999999999999 14.84 c0 1.0533 0.21334 1.8666 0.64 2.44 s1.0467 0.86 1.86 0.86 c0.84 0 1.47 -0.29334 1.89 -0.88 s0.63 -1.3933 0.63 -2.42 c0 -1.0667 -0.21666 -1.8867 -0.65 -2.46 s-1.0633 -0.86 -1.89 -0.86 c-0.8 0 -1.4133 0.28666 -1.84 0.86 s-0.64 1.3933 -0.64 2.46 z M87.57999999999998 9.38 c1.6533 0 2.96 0.50334 3.92 1.51 s1.44 2.3234 1.44 3.95 c0 1.64 -0.49 2.9566 -1.47 3.95 s-2.2766 1.49 -3.89 1.49 c-1.64 0 -2.94 -0.50334 -3.9 -1.51 s-1.44 -2.3166 -1.44 -3.93 c0 -1.6667 0.49 -2.9934 1.47 -3.98 s2.27 -1.48 3.87 -1.48 z M85.07999999999998 14.84 c0 1.0533 0.21334 1.8666 0.64 2.44 s1.0467 0.86 1.86 0.86 c0.84 0 1.47 -0.29334 1.89 -0.88 s0.63 -1.3933 0.63 -2.42 c0 -1.0667 -0.21666 -1.8867 -0.65 -2.46 s-1.0633 -0.86 -1.89 -0.86 c-0.8 0 -1.4133 0.28666 -1.84 0.86 s-0.64 1.3933 -0.64 2.46 z M104.85999999999999 5.720000000000001 l0 14.28 l-2.7 0 l0 -1.32 l-0.04 0 c-0.61334 1.0667 -1.66 1.6 -3.14 1.6 c-1.4267 0 -2.5566 -0.52 -3.39 -1.56 s-1.25 -2.3666 -1.25 -3.98 c0 -1.5733 0.42334 -2.86 1.27 -3.86 s1.95 -1.5 3.31 -1.5 c0.62666 0 1.2167 0.13 1.77 0.39 s0.98334 0.64334 1.29 1.15 l0.04 0 l0 -5.2 l2.84 0 z M97.17999999999999 14.82 c0 0.94666 0.22332 1.7367 0.66998 2.37 s1.0567 0.95 1.83 0.95 c0.81334 0 1.4233 -0.29666 1.83 -0.89 s0.61 -1.41 0.61 -2.45 s-0.21334 -1.8467 -0.64 -2.42 s-1.0333 -0.86 -1.82 -0.86 c-0.81334 0 -1.43 0.3 -1.85 0.9 s-0.63 1.4 -0.63 2.4 z"/></g>
			</g>
		</svg>
	